<?plantuml 1.2026.1?><svg xmlns="http://www.w3.org/2000/svg" xmlns:xlink="http://www.w3.org/1999/xlink" contentStyleType="text/css" data-diagram-type="ACTIVITY" height="629px" preserveAspectRatio="none" style="width:657px;height:629px;background:#FFFFFF;" version="1.1" viewBox="0 0 657 629" width="657px" zoomAndPan="magnify"><title>REQ-FEAT-001 - New-User Technology Onboarding</title><defs/><g><g class="title" data-source-line="10"><text fill="#000000" font-family="Helvetica" font-size="22" font-weight="bold" lengthAdjust="spacing" textLength="624.0029" x="15" y="35.4209">REQ-FEAT-001 - New-User Technology Onboarding</text></g><ellipse cx="328.5015" cy="61.6094" fill="#FFFFFF" rx="10" ry="10" style="stroke:#000000;stroke-width:1;"/><rect fill="#F9FAFB" height="33.9688" rx="12.5" ry="12.5" style="stroke:#1F2937;stroke-width:1;" width="175.5137" x="240.7446" y="91.6094"/><text fill="#111827" font-family="Helvetica" font-size="12" lengthAdjust="spacing" textLength="155.5137" x="250.7446" y="112.748">User selects Type A in CLI</text><rect fill="#F9FAFB" height="33.9688" rx="12.5" ry="12.5" style="stroke:#1F2937;stroke-width:1;" width="346.7773" x="155.1128" y="145.5781"/><text fill="#111827" font-family="Helvetica" font-size="12" lengthAdjust="spacing" textLength="326.7773" x="165.1128" y="166.7168">Prompt "What technology area are you interested in?"</text><rect fill="#F9FAFB" height="33.9688" rx="12.5" ry="12.5" style="stroke:#1F2937;stroke-width:1;" width="475.3613" x="90.8208" y="199.5469"/><text fill="#111827" font-family="Helvetica" font-size="12" lengthAdjust="spacing" textLength="455.3613" x="100.8208" y="220.6855">Call suggest_wgs_by_technology(query, top_k=10, require_all_terms=True)</text><rect fill="#F9FAFB" height="47.9375" rx="12.5" ry="12.5" style="stroke:#1F2937;stroke-width:1;" width="221.0234" x="217.9897" y="253.5156"/><text fill="#111827" font-family="Helvetica" font-size="12" lengthAdjust="spacing" textLength="92.1621" x="227.9897" y="274.6543">Load vector DB</text><text fill="#111827" font-family="Helvetica" font-size="12" lengthAdjust="spacing" textLength="201.0234" x="227.9897" y="288.623">(data/wg_charter_vector_db.json)</text><rect fill="#F9FAFB" height="33.9688" rx="12.5" ry="12.5" style="stroke:#1F2937;stroke-width:1;" width="200.7559" x="228.1235" y="321.4531"/><text fill="#111827" font-family="Helvetica" font-size="12" lengthAdjust="spacing" textLength="180.7559" x="238.1235" y="342.5918">Compute ranked WG matches</text><polygon fill="#F9FAFB" points="284.4263,375.4219,372.5767,375.4219,384.5767,387.4219,372.5767,399.4219,284.4263,399.4219,272.4263,387.4219,284.4263,375.4219" style="stroke:#1F2937;stroke-width:1;"/><text fill="#111827" font-family="Helvetica" font-size="11" lengthAdjust="spacing" textLength="88.1504" x="284.4263" y="391.23">matches found?</text><text fill="#000000" font-family="Helvetica" font-size="11" lengthAdjust="spacing" textLength="19.0083" x="253.418" y="384.8276">yes</text><text fill="#000000" font-family="Helvetica" font-size="11" lengthAdjust="spacing" textLength="13.7017" x="384.5767" y="384.8276">no</text><rect fill="#F9FAFB" height="33.9688" rx="12.5" ry="12.5" style="stroke:#1F2937;stroke-width:1;" width="156.3066" x="147.022" y="409.4219"/><text fill="#111827" font-family="Helvetica" font-size="12" lengthAdjust="spacing" textLength="136.3066" x="157.022" y="430.5605">Display ranked WG list</text><rect fill="#F9FAFB" height="33.9688" rx="12.5" ry="12.5" style="stroke:#1F2937;stroke-width:1;" width="155.4688" x="147.4409" y="463.3906"/><text fill="#111827" font-family="Helvetica" font-size="12" lengthAdjust="spacing" textLength="135.4688" x="157.4409" y="484.5293">User selects WG (1..N)</text><rect fill="#F9FAFB" height="33.9688" rx="12.5" ry="12.5" style="stroke:#1F2937;stroke-width:1;" width="200.9551" x="124.6978" y="517.3594"/><text fill="#111827" font-family="Helvetica" font-size="12" lengthAdjust="spacing" textLength="180.9551" x="134.6978" y="538.498">Return selected canonical WG</text><rect fill="#F9FAFB" height="33.9688" rx="12.5" ry="12.5" style="stroke:#1F2937;stroke-width:1;" width="172.3496" x="345.6528" y="409.4219"/><text fill="#111827" font-family="Helvetica" font-size="12" lengthAdjust="spacing" textLength="152.3496" x="355.6528" y="430.5605">Show no-match guidance</text><rect fill="#F9FAFB" height="33.9688" rx="12.5" ry="12.5" style="stroke:#1F2937;stroke-width:1;" width="84.9043" x="389.3755" y="463.3906"/><text fill="#111827" font-family="Helvetica" font-size="12" lengthAdjust="spacing" textLength="64.9043" x="399.3755" y="484.5293">Allow retry</text><polygon fill="#F9FAFB" points="328.5015,557.3281,340.5015,569.3281,328.5015,581.3281,316.5015,569.3281,328.5015,557.3281" style="stroke:#1F2937;stroke-width:1;"/><ellipse cx="328.5015" cy="612.3281" fill="none" rx="11" ry="11" style="stroke:#000000;stroke-width:1;"/><ellipse cx="328.5015" cy="612.3281" fill="#FFFFFF" rx="6" ry="6" style="stroke:#000000;stroke-width:1;"/><line style="stroke:#1F2937;stroke-width:1;" x1="328.5015" x2="328.5015" y1="71.6094" y2="91.6094"/><polygon fill="#1F2937" points="324.5015,81.6094,328.5015,91.6094,332.5015,81.6094,328.5015,85.6094" style="stroke:#1F2937;stroke-width:1;"/><line style="stroke:#1F2937;stroke-width:1;" x1="328.5015" x2="328.5015" y1="125.5781" y2="145.5781"/><polygon fill="#1F2937" points="324.5015,135.5781,328.5015,145.5781,332.5015,135.5781,328.5015,139.5781" style="stroke:#1F2937;stroke-width:1;"/><line style="stroke:#1F2937;stroke-width:1;" x1="328.5015" x2="328.5015" y1="179.5469" y2="199.5469"/><polygon fill="#1F2937" points="324.5015,189.5469,328.5015,199.5469,332.5015,189.5469,328.5015,193.5469" style="stroke:#1F2937;stroke-width:1;"/><line style="stroke:#1F2937;stroke-width:1;" x1="328.5015" x2="328.5015" y1="233.5156" y2="253.5156"/><polygon fill="#1F2937" points="324.5015,243.5156,328.5015,253.5156,332.5015,243.5156,328.5015,247.5156" style="stroke:#1F2937;stroke-width:1;"/><line style="stroke:#1F2937;stroke-width:1;" x1="328.5015" x2="328.5015" y1="301.4531" y2="321.4531"/><polygon fill="#1F2937" points="324.5015,311.4531,328.5015,321.4531,332.5015,311.4531,328.5015,315.4531" style="stroke:#1F2937;stroke-width:1;"/><line style="stroke:#1F2937;stroke-width:1;" x1="225.1753" x2="225.1753" y1="443.3906" y2="463.3906"/><polygon fill="#1F2937" points="221.1753,453.3906,225.1753,463.3906,229.1753,453.3906,225.1753,457.3906" style="stroke:#1F2937;stroke-width:1;"/><line style="stroke:#1F2937;stroke-width:1;" x1="225.1753" x2="225.1753" y1="497.3594" y2="517.3594"/><polygon fill="#1F2937" points="221.1753,507.3594,225.1753,517.3594,229.1753,507.3594,225.1753,511.3594" style="stroke:#1F2937;stroke-width:1;"/><line style="stroke:#1F2937;stroke-width:1;" x1="431.8276" x2="431.8276" y1="443.3906" y2="463.3906"/><polygon fill="#1F2937" points="427.8276,453.3906,431.8276,463.3906,435.8276,453.3906,431.8276,457.3906" style="stroke:#1F2937;stroke-width:1;"/><line style="stroke:#1F2937;stroke-width:1;" x1="272.4263" x2="225.1753" y1="387.4219" y2="387.4219"/><line style="stroke:#1F2937;stroke-width:1;" x1="225.1753" x2="225.1753" y1="387.4219" y2="409.4219"/><polygon fill="#1F2937" points="221.1753,399.4219,225.1753,409.4219,229.1753,399.4219,225.1753,403.4219" style="stroke:#1F2937;stroke-width:1;"/><line style="stroke:#1F2937;stroke-width:1;" x1="384.5767" x2="431.8276" y1="387.4219" y2="387.4219"/><line style="stroke:#1F2937;stroke-width:1;" x1="431.8276" x2="431.8276" y1="387.4219" y2="409.4219"/><polygon fill="#1F2937" points="427.8276,399.4219,431.8276,409.4219,435.8276,399.4219,431.8276,403.4219" style="stroke:#1F2937;stroke-width:1;"/><line style="stroke:#1F2937;stroke-width:1;" x1="225.1753" x2="225.1753" y1="551.3281" y2="569.3281"/><line style="stroke:#1F2937;stroke-width:1;" x1="225.1753" x2="316.5015" y1="569.3281" y2="569.3281"/><polygon fill="#1F2937" points="306.5015,565.3281,316.5015,569.3281,306.5015,573.3281,310.5015,569.3281" style="stroke:#1F2937;stroke-width:1;"/><line style="stroke:#1F2937;stroke-width:1;" x1="431.8276" x2="431.8276" y1="497.3594" y2="569.3281"/><line style="stroke:#1F2937;stroke-width:1;" x1="431.8276" x2="340.5015" y1="569.3281" y2="569.3281"/><polygon fill="#1F2937" points="350.5015,565.3281,340.5015,569.3281,350.5015,573.3281,346.5015,569.3281" style="stroke:#1F2937;stroke-width:1;"/><line style="stroke:#1F2937;stroke-width:1;" x1="328.5015" x2="328.5015" y1="355.4219" y2="375.4219"/><polygon fill="#1F2937" points="324.5015,365.4219,328.5015,375.4219,332.5015,365.4219,328.5015,369.4219" style="stroke:#1F2937;stroke-width:1;"/><line style="stroke:#1F2937;stroke-width:1;" x1="328.5015" x2="328.5015" y1="581.3281" y2="601.3281"/><polygon fill="#1F2937" points="324.5015,591.3281,328.5015,601.3281,332.5015,591.3281,328.5015,595.3281" style="stroke:#1F2937;stroke-width:1;"/><?plantuml-src PL9DRzD04BtxLmpbuaXDYCkXD55L9MaDI5M04jGBaZMn9_QIpQuxEuvbLVnt9YQegV1XvPttiMzdvurKj2EeBHeNXQrnDJBkO8tvjcJVk6BXhMTuc_RV2QEW3JPMKkzaYUhmYUoUnEHumfan-_PeaAGNL-ylJq3CnUoDTF0S0Hni_X6JvCF5fTRcdWlYrtAj_fViAfsby-Xt94OimSFTjs5wDriDn-C4Xh2aTlWZ4CEAyigfekpWYrjxvCAuCWg2BD6aPmIob4k0LLSJpC0uMDn_daQJh-ntjS3POuK2ycA3J7XOeFEDieMOWb2XlpTdAbkWjH2QijHgrfOXMtVPYpf-QeYxSn1VPzlhP7mEJ4-DOSfKfZpUXUiLDpHGftkF1UmrcrxtTlxJnGKAlclBBAyqFN7s5ykAzUXNyEuWMMZaHWWOtLOZFNw47KfUKPX6PWFnSGERGnzl1g13u23kA0oqmvDR4tGUkXEnDK6c1-XLenI8az5eEUYX1vA6tH5KMOxEEvq7gxnfH3OGnCxt1tolV0lE3_iOK3QcG9TJxpApLZ4cuKv5hZ0RVIDV_m40?></g></svg>