<?plantuml 1.2026.1?><svg xmlns="http://www.w3.org/2000/svg" xmlns:xlink="http://www.w3.org/1999/xlink" contentStyleType="text/css" data-diagram-type="DESCRIPTION" height="1107px" preserveAspectRatio="none" style="width:2845px;height:1107px;background:#FFFFFF;" version="1.1" viewBox="0 0 2845 1107" width="2845px" zoomAndPan="magnify"><defs/><g><!--entity User--><g class="entity" data-qualified-name="User" data-source-line="18" id="ent0002"><ellipse cx="196.3651" cy="221.23" fill="#FFFFFF" rx="8" ry="8" style="stroke:#000000;stroke-width:1;"/><path d="M196.3651,229.23 L196.3651,256.23 M183.3651,237.23 L209.3651,237.23 M196.3651,256.23 L183.3651,271.23 M196.3651,256.23 L209.3651,271.23" fill="none" style="stroke:#000000;stroke-width:1;"/><text fill="#000000" font-family="Helvetica" font-size="14" lengthAdjust="spacing" textLength="31.9102" x="180.41" y="286.2251">User</text></g><!--entity CLI--><g class="entity" data-qualified-name="CLI" data-source-line="19" id="ent0003"><rect fill="#F9FAFB" height="36.2969" rx="2.5" ry="2.5" style="stroke:#1F2937;stroke-width:1;" width="150.8809" x="613.71" y="232.73"/><text fill="#111827" font-family="Helvetica" font-size="14" lengthAdjust="spacing" textLength="130.8809" x="623.71" y="255.7251">CLI (ietf-wg-agent)</text></g><!--entity Menu--><g class="entity" data-qualified-name="Menu" data-source-line="20" id="ent0004"><rect fill="#F9FAFB" height="68.8906" rx="2.5" ry="2.5" style="stroke:#1F2937;stroke-width:1;" width="192.3477" x="976.17" y="202.43"/><text fill="#111827" font-family="Helvetica" font-size="14" lengthAdjust="spacing" textLength="113.5859" x="986.17" y="225.4251">User Type Menu</text><text fill="#111827" font-family="Helvetica" font-size="14" lengthAdjust="spacing" textLength="115.9238" x="986.17" y="241.722">1) New engineer</text><text fill="#111827" font-family="Helvetica" font-size="14" lengthAdjust="spacing" textLength="172.3477" x="986.17" y="258.0189">2) Experienced engineer</text></g><!--entity TechInput--><g class="entity" data-qualified-name="TechInput" data-source-line="21" id="ent0005"><rect fill="#F9FAFB" height="68.8906" rx="2.5" ry="2.5" style="stroke:#1F2937;stroke-width:1;" width="333.1338" x="1355.13" y="175.43"/><text fill="#111827" font-family="Helvetica" font-size="14" lengthAdjust="spacing" textLength="89.0654" x="1365.13" y="198.4251">Type A Input</text><text fill="#111827" font-family="Helvetica" font-size="14" lengthAdjust="spacing" textLength="101.4453" x="1365.13" y="214.722">REQ-FEAT-001</text><text fill="#111827" font-family="Helvetica" font-size="14" lengthAdjust="spacing" textLength="313.1338" x="1365.13" y="231.0189">What technology area are you interested in?</text></g><!--entity TechMatch--><g class="entity" data-qualified-name="TechMatch" data-source-line="22" id="ent0006"><rect fill="#F9FAFB" height="52.5938" rx="2.5" ry="2.5" style="stroke:#1F2937;stroke-width:1;" width="243.1523" x="1804.26" y="193.58"/><text fill="#111827" font-family="Helvetica" font-size="14" lengthAdjust="spacing" textLength="223.1523" x="1814.26" y="216.5751">suggest_wgs_by_technology(...)</text><text fill="#111827" font-family="Helvetica" font-size="14" lengthAdjust="spacing" textLength="202.5352" x="1814.26" y="232.872">(vector DB + context match)</text></g><!--entity TypeAHelp--><g class="entity" data-qualified-name="TypeAHelp" data-source-line="23" id="ent0007"><rect fill="#F9FAFB" height="68.8906" rx="2.5" ry="2.5" style="stroke:#1F2937;stroke-width:1;" width="349.0137" x="2490.02" y="479.43"/><text fill="#111827" font-family="Helvetica" font-size="14" lengthAdjust="spacing" textLength="152.1748" x="2500.02" y="502.4251">Type A Post-Selection</text><text fill="#111827" font-family="Helvetica" font-size="14" lengthAdjust="spacing" textLength="176.1143" x="2500.02" y="518.722">Print new-participant link</text><text fill="#111827" font-family="Helvetica" font-size="14" lengthAdjust="spacing" textLength="329.0137" x="2500.02" y="535.0189">https://www.ietf.org/meeting/new-participants/</text></g><!--entity WgInput--><g class="entity" data-qualified-name="WgInput" data-source-line="24" id="ent0008"><rect fill="#F9FAFB" height="68.8906" rx="2.5" ry="2.5" style="stroke:#1F2937;stroke-width:1;" width="324.7188" x="1359.34" y="279.43"/><text fill="#111827" font-family="Helvetica" font-size="14" lengthAdjust="spacing" textLength="89.0928" x="1369.34" y="302.4251">Type B Input</text><text fill="#111827" font-family="Helvetica" font-size="14" lengthAdjust="spacing" textLength="101.4453" x="1369.34" y="318.722">REQ-FEAT-002</text><text fill="#111827" font-family="Helvetica" font-size="14" lengthAdjust="spacing" textLength="304.7188" x="1369.34" y="335.0189">What Working Group are you interested in?</text></g><!--entity WgResolve--><g class="entity" data-qualified-name="WgResolve" data-source-line="25" id="ent0009"><rect fill="#F9FAFB" height="52.5938" rx="2.5" ry="2.5" style="stroke:#1F2937;stroke-width:1;" width="197.7891" x="1826.94" y="291.58"/><text fill="#111827" font-family="Helvetica" font-size="14" lengthAdjust="spacing" textLength="149.3311" x="1836.94" y="314.5751">resolve_wg_name(...)</text><text fill="#111827" font-family="Helvetica" font-size="14" lengthAdjust="spacing" textLength="177.7891" x="1836.94" y="330.872">(short/full + suggestions)</text></g><!--entity WgSelect--><g class="entity" data-qualified-name="WgSelect" data-source-line="26" id="ent0010"><rect fill="#F9FAFB" height="52.5938" rx="2.5" ry="2.5" style="stroke:#1F2937;stroke-width:1;" width="113.6592" x="2173.39" y="342.58"/><text fill="#111827" font-family="Helvetica" font-size="14" lengthAdjust="spacing" textLength="93.6592" x="2183.39" y="365.5751">WG Selection</text><text fill="#111827" font-family="Helvetica" font-size="14" lengthAdjust="spacing" textLength="75.9199" x="2183.39" y="381.872">Select 1..N</text></g><!--entity FeatureMenu--><g class="entity" data-qualified-name="FeatureMenu" data-source-line="27" id="ent0011"><rect fill="#F9FAFB" height="134.0781" rx="2.5" ry="2.5" style="stroke:#1F2937;stroke-width:1;" width="280.9893" x="55.87" y="658.84"/><text fill="#111827" font-family="Helvetica" font-size="14" lengthAdjust="spacing" textLength="126.0068" x="65.87" y="681.8351">WG Feature Menu</text><text fill="#111827" font-family="Helvetica" font-size="14" lengthAdjust="spacing" textLength="133.5605" x="65.87" y="698.132">1) Summary of WG</text><text fill="#111827" font-family="Helvetica" font-size="14" lengthAdjust="spacing" textLength="107.7549" x="65.87" y="714.4289">2) Active drafts</text><text fill="#111827" font-family="Helvetica" font-size="14" lengthAdjust="spacing" textLength="249.8193" x="65.87" y="730.7257">3) Draft discussions (last 3 months)</text><text fill="#111827" font-family="Helvetica" font-size="14" lengthAdjust="spacing" textLength="260.9893" x="65.87" y="747.0226">4) Updates from last 2 IETF meetings</text><text fill="#111827" font-family="Helvetica" font-size="14" lengthAdjust="spacing" textLength="260.4219" x="65.87" y="763.3195">5) Agenda of upcoming IETF meeting</text><text fill="#111827" font-family="Helvetica" font-size="14" lengthAdjust="spacing" textLength="109.7578" x="65.87" y="779.6164">b) Back, q) Quit</text></g><!--entity Charter--><g class="entity" data-qualified-name="Charter" data-source-line="28" id="ent0012"><rect fill="#F9FAFB" height="68.8906" rx="2.5" ry="2.5" style="stroke:#1F2937;stroke-width:1;" width="175.0117" x="601.64" y="600.43"/><text fill="#111827" font-family="Helvetica" font-size="14" lengthAdjust="spacing" textLength="101.4453" x="611.64" y="623.4251">REQ-FEAT-003</text><text fill="#111827" font-family="Helvetica" font-size="14" lengthAdjust="spacing" textLength="132.3643" x="611.64" y="639.722">get_wg_charter(...)</text><text fill="#111827" font-family="Helvetica" font-size="14" lengthAdjust="spacing" textLength="155.0117" x="611.64" y="656.0189">Complete charter text</text></g><!--entity Drafts--><g class="entity" data-qualified-name="Drafts" data-source-line="29" id="ent0013"><rect fill="#F9FAFB" height="68.8906" rx="2.5" ry="2.5" style="stroke:#1F2937;stroke-width:1;" width="261.3291" x="558.48" y="824.43"/><text fill="#111827" font-family="Helvetica" font-size="14" lengthAdjust="spacing" textLength="101.4453" x="568.48" y="847.4251">REQ-FEAT-004</text><text fill="#111827" font-family="Helvetica" font-size="14" lengthAdjust="spacing" textLength="241.3291" x="568.48" y="863.722">get_wg_active_drafts(..., limit=10)</text><text fill="#111827" font-family="Helvetica" font-size="14" lengthAdjust="spacing" textLength="142.6523" x="568.48" y="880.0189">identifier/title/status</text></g><!--entity Discussions--><g class="entity" data-qualified-name="Discussions" data-source-line="30" id="ent0014"><rect fill="#F9FAFB" height="68.8906" rx="2.5" ry="2.5" style="stroke:#1F2937;stroke-width:1;" width="378.8252" x="499.74" y="928.43"/><text fill="#111827" font-family="Helvetica" font-size="14" lengthAdjust="spacing" textLength="101.4453" x="509.74" y="951.4251">REQ-FEAT-005</text><text fill="#111827" font-family="Helvetica" font-size="14" lengthAdjust="spacing" textLength="358.8252" x="509.74" y="967.722">get_wg_discussion_summary(..., window_days=90)</text><text fill="#111827" font-family="Helvetica" font-size="14" lengthAdjust="spacing" textLength="140.1846" x="509.74" y="984.0189">summary + threads</text></g><!--entity Meetings--><g class="entity" data-qualified-name="Meetings" data-source-line="31" id="ent0015"><rect fill="#F9FAFB" height="68.8906" rx="2.5" ry="2.5" style="stroke:#1F2937;stroke-width:1;" width="287.9824" x="545.16" y="1032.43"/><text fill="#111827" font-family="Helvetica" font-size="14" lengthAdjust="spacing" textLength="101.4453" x="555.16" y="1055.4251">REQ-FEAT-006</text><text fill="#111827" font-family="Helvetica" font-size="14" lengthAdjust="spacing" textLength="267.9824" x="555.16" y="1071.722">get_wg_last_two_meeting_updates(...)</text><text fill="#111827" font-family="Helvetica" font-size="14" lengthAdjust="spacing" textLength="246.2988" x="555.16" y="1088.0189">IETF &lt;number&gt; agenda + minutes</text></g><!--entity Upcoming--><g class="entity" data-qualified-name="Upcoming" data-source-line="32" id="ent0016"><rect fill="#F9FAFB" height="85.1875" rx="2.5" ry="2.5" style="stroke:#1F2937;stroke-width:1;" width="292.624" x="542.84" y="704.28"/><text fill="#111827" font-family="Helvetica" font-size="14" lengthAdjust="spacing" textLength="101.4453" x="552.84" y="727.2751">REQ-FEAT-008</text><text fill="#111827" font-family="Helvetica" font-size="14" lengthAdjust="spacing" textLength="272.624" x="552.84" y="743.572">get_upcoming_ietf_agenda_summary()</text><text fill="#111827" font-family="Helvetica" font-size="14" lengthAdjust="spacing" textLength="222.6328" x="552.84" y="759.8689">important-dates + agenda links</text><text fill="#111827" font-family="Helvetica" font-size="14" lengthAdjust="spacing" textLength="259.499" x="552.84" y="776.1657">Important details (IETF 125/126/127)</text></g><!--entity Core--><g class="entity" data-qualified-name="Core" data-source-line="33" id="ent0017"><rect fill="#F9FAFB" height="52.5938" rx="2.5" ry="2.5" style="stroke:#1F2937;stroke-width:1;" width="265.5674" x="939.56" y="832.58"/><text fill="#111827" font-family="Helvetica" font-size="14" lengthAdjust="spacing" textLength="136.2539" x="949.56" y="855.5751">ietf.py core parsers</text><text fill="#111827" font-family="Helvetica" font-size="14" lengthAdjust="spacing" textLength="245.5674" x="949.56" y="871.872">120s timeout + URL-specific errors</text></g><!--entity VDB--><g class="entity" data-qualified-name="VDB" data-source-line="34" id="ent0018"><path d="M2108.42,199.08 C2108.42,189.08 2230.2218,189.08 2230.2218,189.08 C2230.2218,189.08 2352.0235,189.08 2352.0235,199.08 L2352.0235,240.6737 C2352.0235,250.6737 2230.2218,250.6737 2230.2218,250.6737 C2230.2218,250.6737 2108.42,250.6737 2108.42,240.6737 L2108.42,199.08" fill="#FFFFFF" style="stroke:#000000;stroke-width:1;"/><path d="M2108.42,199.08 C2108.42,209.08 2230.2218,209.08 2230.2218,209.08 C2230.2218,209.08 2352.0235,209.08 2352.0235,199.08" fill="none" style="stroke:#000000;stroke-width:1;"/><text fill="#000000" font-family="Helvetica" font-size="14" lengthAdjust="spacing" textLength="70.5332" x="2118.42" y="226.0751">Vector DB</text><text fill="#000000" font-family="Helvetica" font-size="14" lengthAdjust="spacing" textLength="223.6035" x="2118.42" y="242.372">data/wg_charter_vector_db.json</text></g><!--entity Sources--><g class="entity" data-qualified-name="Sources" data-source-line="35" id="ent0019"><path d="M1425.1472,844.4092 C1429.9818,839.109 1433.8552,839.3267 1437.3394,845.8069 C1440.4182,838.0375 1447.3687,836.0688 1452.7774,843.4296 C1456.0033,837.6591 1462.8359,835.4629 1466.6677,842.7868 C1472.0387,836.0159 1476.8159,836.5561 1480.715,844.2193 C1484.2304,837.3126 1488.7341,835.6452 1494.3734,842.0382 C1499.4241,833.8959 1504.5458,835.9791 1509.538,842.1005 C1512.1111,835.3394 1518.1633,835.4476 1521.9131,840.909 C1528.1191,833.5289 1534.4027,834.0672 1538.489,843.0554 C1541.6864,836.7056 1545.2421,835.8821 1550.2514,841.2342 C1555.758,833.7001 1562.0883,834.0922 1566.4798,842.3781 C1570.1737,834.7757 1577.1178,835.5382 1580.8652,842.3247 C1585.2247,836.3297 1590.0725,837.6985 1593.3997,843.4283 C1597.5423,837.0959 1603.5755,837.6105 1607.1022,844.0872 C1612.5314,836.721 1619.3223,837.6361 1623.2062,845.7 C1632.3739,847.7696 1633.369,853.4015 1628.541,860.512 C1633.4889,866.8968 1631.9452,875.1543 1622.5092,875.9015 C1618.9795,883.0194 1612.4949,882.3033 1609.1509,875.7204 C1606.1858,883.7435 1599.1428,884.0212 1594.0869,877.9559 C1588.6251,885.6972 1583.2016,884.1212 1578.6812,876.9814 C1575.6652,883.9882 1570.253,882.723 1566.3138,877.9507 C1562.6199,885.1525 1555.2561,884.9932 1550.9227,878.6789 C1547.3928,886.1536 1541.7291,886.2217 1537.4463,879.3881 C1533.4251,886.0754 1529.1588,886.4832 1523.9633,880.6531 C1519.3037,886.7696 1513.0791,886.2249 1510.0781,878.9353 C1504.9982,885.2484 1499.2453,885.3033 1494.3496,878.7108 C1489.3478,885.9095 1484.2482,885.655 1480.1027,877.8951 C1475.5616,884.0417 1469.1778,883.4764 1465.7146,876.6954 C1462.7348,882.4404 1456.5441,883.2192 1453.208,877.0701 C1448.4766,883.4907 1442.8764,882.7274 1439.1606,875.9861 C1434.2541,883.4001 1428.2658,883.1629 1423.8123,875.5242 C1414.8989,872.9529 1412.8437,867.7819 1418.9068,860.3644 C1413.84,853.178 1415.7904,845.9542 1425.1472,844.4092" fill="#FFFFFF" style="stroke:#000000;stroke-width:1;"/><text fill="#000000" font-family="Helvetica" font-size="14" lengthAdjust="spacing" textLength="184.1875" x="1429.6" y="863.7251">Datatracker + Mailarchive</text></g><g class="entity" data-qualified-name="GMN51" data-source-line="76" id="ent0052"><path d="M11,828.18 L11,883.5784 A0,0 0 0 0 11,883.5784 L381.7368,883.5784 A0,0 0 0 0 381.7368,883.5784 L381.7368,838.18 L371.7368,828.18 L200.37,828.18 L196.37,793.09 L192.37,828.18 L11,828.18 A0,0 0 0 0 11,828.18" fill="#FFF7ED" style="stroke:#EA580C;stroke-width:1;"/><path d="M371.7368,828.18 L371.7368,838.18 L381.7368,838.18 L371.7368,828.18" fill="#FFF7ED" style="stroke:#EA580C;stroke-width:1;"/><text fill="#7C2D12" font-family="Helvetica" font-size="13" lengthAdjust="spacing" textLength="349.7368" x="17" y="845.2469">REQ-FEAT-001..006 + REQ-FEAT-008 loop is iterative.</text><text fill="#7C2D12" font-family="Helvetica" font-size="13" lengthAdjust="spacing" textLength="300.5552" x="17" y="860.3797">User can continue actions on the selected WG</text><text fill="#7C2D12" font-family="Helvetica" font-size="13" lengthAdjust="spacing" textLength="257.042" x="17" y="875.5125">or backtrack to re-select WG/user-type.</text></g><!--link User to CLI--><g class="link" data-entity-1="ent0002" data-entity-2="ent0003" data-link-type="dependency" data-source-line="37" id="lnk20"><path d="M212.59,250.87 C272.62,250.87 489.35,250.87 607.47,250.87" fill="none" id="User-to-CLI" style="stroke:#1F2937;stroke-width:1;"/><polygon fill="#1F2937" points="613.47,250.87,604.47,246.87,608.47,250.87,604.47,254.87,613.47,250.87" style="stroke:#1F2937;stroke-width:1;"/></g><!--link CLI to Menu--><g class="link" data-entity-1="ent0003" data-entity-2="ent0004" data-link-type="dependency" data-source-line="38" id="lnk21"><path d="M765.01,248.13 C825.39,245.91 904.724,242.9895 970.004,240.5995" fill="none" id="CLI-to-Menu" style="stroke:#1F2937;stroke-width:1;"/><polygon fill="#1F2937" points="976,240.38,966.8597,236.712,971.0033,240.5629,967.1524,244.7066,976,240.38" style="stroke:#1F2937;stroke-width:1;"/></g><!--link Menu to TechInput--><g class="link" data-entity-1="ent0004" data-entity-2="ent0005" data-link-type="dependency" data-source-line="40" id="lnk22"><path d="M1168.76,231.12 C1222.91,227.85 1286.2109,224.0317 1348.9609,220.2417" fill="none" id="Menu-to-TechInput" style="stroke:#1F2937;stroke-width:1;"/><polygon fill="#1F2937" points="1354.95,219.88,1345.7252,216.4299,1349.9591,220.1814,1346.2075,224.4153,1354.95,219.88" style="stroke:#1F2937;stroke-width:1;"/><text fill="#000000" font-family="Helvetica" font-size="13" lengthAdjust="spacing" textLength="88.9561" x="1236.13" y="217.9369">user type = 1</text></g><!--link Menu to WgInput--><g class="link" data-entity-1="ent0004" data-entity-2="ent0008" data-link-type="dependency" data-source-line="41" id="lnk23"><path d="M1168.76,253.3 C1224.06,262.82 1289.2471,274.0315 1353.0471,285.0215" fill="none" id="Menu-to-WgInput" style="stroke:#1F2937;stroke-width:1;"/><polygon fill="#1F2937" points="1358.96,286.04,1350.7697,280.5702,1354.0326,285.1912,1349.4116,288.4541,1358.96,286.04" style="stroke:#1F2937;stroke-width:1;"/><text fill="#000000" font-family="Helvetica" font-size="13" lengthAdjust="spacing" textLength="88.9561" x="1236.13" y="262.9369">user type = 2</text></g><!--link TechInput to TechMatch--><g class="link" data-entity-1="ent0005" data-entity-2="ent0006" data-link-type="dependency" data-source-line="43" id="lnk24"><path d="M1688.58,214 C1727.2,214.96 1761.6119,215.8095 1797.8719,216.7195" fill="none" id="TechInput-to-TechMatch" style="stroke:#1F2937;stroke-width:1;"/><polygon fill="#1F2937" points="1803.87,216.87,1794.9732,212.6455,1798.8716,216.7446,1794.7725,220.6429,1803.87,216.87" style="stroke:#1F2937;stroke-width:1;"/></g><!--link TechMatch to VDB--><g class="link" data-entity-1="ent0006" data-entity-2="ent0018" data-link-type="dependency" data-source-line="44" id="lnk25"><path d="M2047.65,219.87 C2067.56,219.87 2082.19,219.87 2102.1,219.87" fill="none" id="TechMatch-to-VDB" style="stroke:#1F2937;stroke-width:1;"/><polygon fill="#1F2937" points="2108.1,219.87,2099.1,215.87,2103.1,219.87,2099.1,223.87,2108.1,219.87" style="stroke:#1F2937;stroke-width:1;"/></g><!--link TechMatch to WgSelect--><g class="link" data-entity-1="ent0006" data-entity-2="ent0010" data-link-type="dependency" data-source-line="45" id="lnk26"><path d="M1988.51,246.63 C2007.51,255.11 2028.43,264.67 2047.42,273.87 C2092.92,295.93 2138.593,319.9131 2174.953,339.4231" fill="none" id="TechMatch-to-WgSelect" style="stroke:#1F2937;stroke-width:1;"/><polygon fill="#1F2937" points="2180.24,342.26,2174.2008,334.48,2175.8342,339.8959,2170.4183,341.5293,2180.24,342.26" style="stroke:#1F2937;stroke-width:1;"/></g><!--link WgSelect to TypeAHelp--><g class="link" data-entity-1="ent0010" data-entity-2="ent0007" data-link-type="dependency" data-source-line="46" id="lnk27"><path d="M2287.29,387.68 C2356.06,410.75 2468.3114,448.4021 2553.8514,477.0921" fill="none" id="WgSelect-to-TypeAHelp" style="stroke:#1F2937;stroke-width:1;"/><polygon fill="#1F2937" points="2559.54,479,2552.2791,472.3457,2554.7995,477.4101,2549.7352,479.9305,2559.54,479" style="stroke:#1F2937;stroke-width:1;"/><text fill="#000000" font-family="Helvetica" font-size="13" lengthAdjust="spacing" textLength="76.7368" x="2383.02" y="416.9369">from type A</text></g><!--link TypeAHelp to FeatureMenu--><g class="link" data-entity-1="ent0007" data-entity-2="ent0011" data-link-type="dependency" data-source-line="47" id="lnk28"><path d="M2489.64,530.87 C2410.83,537.2 2316.41,542.87 2231.22,542.87 C688.15,542.87 688.15,542.87 688.15,542.87 C551.06,542.87 410.5207,603.4814 313.7907,655.6614" fill="none" id="TypeAHelp-to-FeatureMenu" style="stroke:#1F2937;stroke-width:1;"/><polygon fill="#1F2937" points="308.51,658.51,318.3301,657.7575,312.9106,656.1362,314.5319,650.7167,308.51,658.51" style="stroke:#1F2937;stroke-width:1;"/></g><!--link WgInput to WgResolve--><g class="link" data-entity-1="ent0008" data-entity-2="ent0009" data-link-type="dependency" data-source-line="49" id="lnk29"><path d="M1684.52,315.48 C1732.65,315.96 1777.8903,316.4097 1820.6503,316.8397" fill="none" id="WgInput-to-WgResolve" style="stroke:#1F2937;stroke-width:1;"/><polygon fill="#1F2937" points="1826.65,316.9,1817.6907,312.8097,1821.6503,316.8497,1817.6102,320.8093,1826.65,316.9" style="stroke:#1F2937;stroke-width:1;"/></g><!--link WgResolve to WgSelect--><g class="link" data-entity-1="ent0009" data-entity-2="ent0010" data-link-type="dependency" data-source-line="50" id="lnk30"><path d="M2025.01,334.43 C2073.99,342.69 2125.5435,351.3927 2167.0135,358.3827" fill="none" id="WgResolve-to-WgSelect" style="stroke:#1F2937;stroke-width:1;"/><polygon fill="#1F2937" points="2172.93,359.38,2164.72,353.9397,2167.9995,358.5489,2163.3903,361.8285,2172.93,359.38" style="stroke:#1F2937;stroke-width:1;"/></g><!--link WgSelect to FeatureMenu--><g class="link" data-entity-1="ent0010" data-entity-2="ent0011" data-link-type="dependency" data-source-line="51" id="lnk31"><path d="M2182.2,395.67 C2124.13,426.19 2021.4,471.87 1926.84,471.87 C688.15,471.87 688.15,471.87 688.15,471.87 C563.68,471.87 522.87,460.83 411.74,516.87 C345.6,550.22 290.491,606.574 251.241,654.094" fill="none" id="WgSelect-to-FeatureMenu" style="stroke:#1F2937;stroke-width:1;"/><polygon fill="#1F2937" points="247.42,658.72,256.2355,654.3282,250.6041,654.865,250.0674,649.2336,247.42,658.72" style="stroke:#1F2937;stroke-width:1;"/><text fill="#000000" font-family="Helvetica" font-size="13" lengthAdjust="spacing" textLength="76.7622" x="1242.13" y="467.9369">from type B</text></g><!--link FeatureMenu to WgSelect--><g class="link" data-entity-1="ent0011" data-entity-2="ent0010" data-link-type="dependency" data-source-line="71" id="lnk48"><path d="M240.21,658.54 C278.81,602.96 340.35,525.85 411.74,478.87 C452.81,451.84 643.8,400.87 688.15,400.87 C688.15,400.87 688.15,400.87 1926.84,400.87 C2013.15,400.87 2106.6214,388.743 2167.1914,379.313" fill="none" id="FeatureMenu-to-WgSelect" style="stroke:#1F2937;stroke-width:1;"/><polygon fill="#1F2937" points="2173.12,378.39,2163.6118,375.8221,2168.1795,379.1592,2164.8425,383.7269,2173.12,378.39" style="stroke:#1F2937;stroke-width:1;"/><text fill="#000000" font-family="Helvetica" font-size="13" lengthAdjust="spacing" textLength="54.0884" x="1253.13" y="396.9369">b (Back)</text></g><!--link FeatureMenu to Charter--><g class="link" data-entity-1="ent0011" data-entity-2="ent0012" data-link-type="dependency" data-source-line="53" id="lnk32"><path d="M337.35,699.92 C422.35,684.16 522.2806,665.6341 595.3406,652.0841" fill="none" id="FeatureMenu-to-Charter" style="stroke:#1F2937;stroke-width:1;"/><polygon fill="#1F2937" points="601.24,650.99,591.6615,648.6983,596.3238,651.9018,593.1203,656.5641,601.24,650.99" style="stroke:#1F2937;stroke-width:1;"/><text fill="#000000" font-family="Helvetica" font-size="13" lengthAdjust="spacing" textLength="53.5107" x="414.24" y="673.9369">option 1</text></g><!--link Charter to FeatureMenu--><g class="link" data-entity-1="ent0012" data-entity-2="ent0011" data-link-type="dependency" data-source-line="66" id="lnk43"><path d="M601.17,634.7 C546.35,636.03 474.35,640.4 411.74,652.87 C387.25,657.75 367.4557,662.9065 342.9057,670.5965" fill="none" id="Charter-to-FeatureMenu" style="stroke:#1F2937;stroke-width:1;"/><polygon fill="#1F2937" points="337.18,672.39,346.9642,673.5169,341.9514,670.8954,344.5728,665.8826,337.18,672.39" style="stroke:#1F2937;stroke-width:1;"/><text fill="#000000" font-family="Helvetica" font-size="13" lengthAdjust="spacing" textLength="56.5259" x="412.74" y="640.9369">continue</text></g><!--link FeatureMenu to Drafts--><g class="link" data-entity-1="ent0011" data-entity-2="ent0013" data-link-type="dependency" data-source-line="54" id="lnk33"><path d="M337.3,767 C362.06,774.09 387.63,781.29 411.74,787.87 C459.41,800.89 506.0863,813.0565 552.4063,824.8765" fill="none" id="FeatureMenu-to-Drafts" style="stroke:#1F2937;stroke-width:1;"/><polygon fill="#1F2937" points="558.22,826.36,550.4885,820.2589,553.3753,825.1237,548.5104,828.0105,558.22,826.36" style="stroke:#1F2937;stroke-width:1;"/><text fill="#000000" font-family="Helvetica" font-size="13" lengthAdjust="spacing" textLength="53.5107" x="414.24" y="783.9369">option 2</text></g><!--link Drafts to FeatureMenu--><g class="link" data-entity-1="ent0013" data-entity-2="ent0011" data-link-type="dependency" data-source-line="67" id="lnk44"><path d="M558.08,853.88 C511.16,849.46 458.31,841.42 411.74,826.87 C397.31,822.37 395.27,817.6 381.74,810.87 C367.37,803.74 357.7107,799.0321 342.6207,791.8721" fill="none" id="Drafts-to-FeatureMenu" style="stroke:#1F2937;stroke-width:1;"/><polygon fill="#1F2937" points="337.2,789.3,343.6164,796.7719,341.7173,791.4434,347.0458,789.5443,337.2,789.3" style="stroke:#1F2937;stroke-width:1;"/><text fill="#000000" font-family="Helvetica" font-size="13" lengthAdjust="spacing" textLength="56.5259" x="412.74" y="822.9369">continue</text></g><!--link FeatureMenu to Discussions--><g class="link" data-entity-1="ent0011" data-entity-2="ent0014" data-link-type="dependency" data-source-line="55" id="lnk34"><path d="M337.35,778.58 C353.31,787.92 368.56,798.65 381.74,810.87 C401.87,829.55 392.08,845.71 411.74,864.87 C443.34,895.68 458.68,894.69 499.74,910.87 C515.36,917.03 526.2645,920.966 542.9245,926.186" fill="none" id="FeatureMenu-to-Discussions" style="stroke:#1F2937;stroke-width:1;"/><polygon fill="#1F2937" points="548.65,927.98,541.2577,921.472,543.8787,926.485,538.8657,929.1061,548.65,927.98" style="stroke:#1F2937;stroke-width:1;"/><text fill="#000000" font-family="Helvetica" font-size="13" lengthAdjust="spacing" textLength="53.5107" x="414.24" y="860.9369">option 3</text></g><!--link Discussions to FeatureMenu--><g class="link" data-entity-1="ent0014" data-entity-2="ent0011" data-link-type="dependency" data-source-line="68" id="lnk45"><path d="M499.41,965.97 C467.22,958.65 436.3,945.67 411.74,923.87 C372.87,889.39 415.18,850.65 381.74,810.87 C369.37,796.17 359.0311,787.0227 342.3611,776.7727" fill="none" id="Discussions-to-FeatureMenu" style="stroke:#1F2937;stroke-width:1;"/><polygon fill="#1F2937" points="337.25,773.63,342.8215,781.7515,341.5093,776.2489,347.0118,774.9366,337.25,773.63" style="stroke:#1F2937;stroke-width:1;"/><text fill="#000000" font-family="Helvetica" font-size="13" lengthAdjust="spacing" textLength="56.5259" x="412.74" y="919.9369">continue</text></g><!--link FeatureMenu to Meetings--><g class="link" data-entity-1="ent0011" data-entity-2="ent0015" data-link-type="dependency" data-source-line="56" id="lnk35"><path d="M337.08,771.82 C354.1,782.37 369.69,795.24 381.74,810.87 C428.82,872.01 362.45,922.5 411.74,981.87 C444.69,1021.57 489.878,1041.722 539.158,1053.262" fill="none" id="FeatureMenu-to-Meetings" style="stroke:#1F2937;stroke-width:1;"/><polygon fill="#1F2937" points="545,1054.63,537.1491,1048.6833,540.1317,1053.49,535.325,1056.4726,545,1054.63" style="stroke:#1F2937;stroke-width:1;"/><text fill="#000000" font-family="Helvetica" font-size="13" lengthAdjust="spacing" textLength="53.5107" x="414.24" y="977.9369">option 4</text></g><!--link Meetings to FeatureMenu--><g class="link" data-entity-1="ent0015" data-entity-2="ent0011" data-link-type="dependency" data-source-line="69" id="lnk46"><path d="M544.73,1092.28 C496.89,1092.62 446.88,1082.86 411.74,1049.87 C333.67,976.61 444.97,897.26 381.74,810.87 C369.97,794.81 359.5068,784.8719 342.4168,774.1819" fill="none" id="Meetings-to-FeatureMenu" style="stroke:#1F2937;stroke-width:1;"/><polygon fill="#1F2937" points="337.33,771,342.839,779.164,341.569,773.6516,347.0815,772.3816,337.33,771" style="stroke:#1F2937;stroke-width:1;"/><text fill="#000000" font-family="Helvetica" font-size="13" lengthAdjust="spacing" textLength="56.5259" x="412.74" y="1045.9369">continue</text></g><!--link FeatureMenu to Upcoming--><g class="link" data-entity-1="ent0011" data-entity-2="ent0016" data-link-type="dependency" data-source-line="57" id="lnk36"><path d="M337.34,730.65 C379.87,732.2 426.72,734 469.74,735.87 C493.25,736.9 512.1972,737.7764 536.4872,738.9664" fill="none" id="FeatureMenu-to-Upcoming" style="stroke:#1F2937;stroke-width:1;"/><polygon fill="#1F2937" points="542.48,739.26,533.6865,734.8244,537.486,739.0153,533.2951,742.8148,542.48,739.26" style="stroke:#1F2937;stroke-width:1;"/><text fill="#000000" font-family="Helvetica" font-size="13" lengthAdjust="spacing" textLength="53.5107" x="414.24" y="729.9369">option 5</text></g><!--link Upcoming to FeatureMenu--><g class="link" data-entity-1="ent0016" data-entity-2="ent0011" data-link-type="dependency" data-source-line="70" id="lnk47"><path d="M542.43,761.43 C500.24,763.7 454.12,764.31 411.74,760.87 C387.59,758.92 367.9948,756.6218 343.2948,752.9518" fill="none" id="Upcoming-to-FeatureMenu" style="stroke:#1F2937;stroke-width:1;"/><polygon fill="#1F2937" points="337.36,752.07,345.6744,757.3493,342.3057,752.8048,346.8501,749.4362,337.36,752.07" style="stroke:#1F2937;stroke-width:1;"/><text fill="#000000" font-family="Helvetica" font-size="13" lengthAdjust="spacing" textLength="56.5259" x="412.74" y="756.9369">continue</text></g><!--link Charter to Core--><g class="link" data-entity-1="ent0012" data-entity-2="ent0017" data-link-type="dependency" data-source-line="59" id="lnk37"><path d="M776.82,650.01 C809.96,658.02 847.27,669.83 878.56,686.87 C949.26,725.4 1011.6342,789.9575 1044.9642,827.7975" fill="none" id="Charter-to-Core" style="stroke:#1F2937;stroke-width:1;"/><polygon fill="#1F2937" points="1048.93,832.3,1045.9829,822.9024,1045.6251,828.5479,1039.9796,828.1902,1048.93,832.3" style="stroke:#1F2937;stroke-width:1;"/></g><!--link Drafts to Core--><g class="link" data-entity-1="ent0013" data-entity-2="ent0017" data-link-type="dependency" data-source-line="60" id="lnk38"><path d="M820.27,858.87 C858.66,858.87 894.7,858.87 933.22,858.87" fill="none" id="Drafts-to-Core" style="stroke:#1F2937;stroke-width:1;"/><polygon fill="#1F2937" points="939.22,858.87,930.22,854.87,934.22,858.87,930.22,862.87,939.22,858.87" style="stroke:#1F2937;stroke-width:1;"/></g><!--link Discussions to Core--><g class="link" data-entity-1="ent0014" data-entity-2="ent0017" data-link-type="dependency" data-source-line="61" id="lnk39"><path d="M818.14,927.95 C868.76,914.15 920.2016,900.1094 967.4416,887.2194" fill="none" id="Discussions-to-Core" style="stroke:#1F2937;stroke-width:1;"/><polygon fill="#1F2937" points="973.23,885.64,963.4945,884.1502,968.4063,886.9562,965.6004,891.8681,973.23,885.64" style="stroke:#1F2937;stroke-width:1;"/></g><!--link Meetings to Core--><g class="link" data-entity-1="ent0015" data-entity-2="ent0017" data-link-type="dependency" data-source-line="62" id="lnk40"><path d="M833.48,1034.07 C849.05,1028.53 864.38,1022.17 878.56,1014.87 C945.57,980.43 1006.8149,924.4202 1041.5349,889.7402" fill="none" id="Meetings-to-Core" style="stroke:#1F2937;stroke-width:1;"/><polygon fill="#1F2937" points="1045.78,885.5,1036.5856,889.0302,1042.2424,889.0335,1042.2392,894.6903,1045.78,885.5" style="stroke:#1F2937;stroke-width:1;"/></g><!--link Upcoming to Core--><g class="link" data-entity-1="ent0016" data-entity-2="ent0017" data-link-type="dependency" data-source-line="63" id="lnk41"><path d="M835.9,789.7 C884.45,803.96 931.3634,817.7482 974.5434,830.4382" fill="none" id="Upcoming-to-Core" style="stroke:#1F2937;stroke-width:1;"/><polygon fill="#1F2937" points="980.3,832.13,972.793,825.7546,975.5029,830.7202,970.5373,833.43,980.3,832.13" style="stroke:#1F2937;stroke-width:1;"/></g><!--link Core to Sources--><g class="link" data-entity-1="ent0017" data-entity-2="ent0019" data-link-type="dependency" data-source-line="64" id="lnk42"><path d="M1205.45,858.87 C1272.06,858.87 1345.77,858.87 1408.37,858.87" fill="none" id="Core-to-Sources" style="stroke:#1F2937;stroke-width:1;"/><polygon fill="#1F2937" points="1414.37,858.87,1405.37,854.87,1409.37,858.87,1405.37,862.87,1414.37,858.87" style="stroke:#1F2937;stroke-width:1;"/></g><!--link WgSelect to Menu--><g class="link" data-entity-1="ent0010" data-entity-2="ent0004" data-link-type="dependency" data-source-line="72" id="lnk49"><path d="M2191.91,342.2 C2166.71,323.14 2133.57,295.99 2108.42,267.87 C2075.7,231.32 2090.05,200.15 2047.42,175.87 C1757.91,11 1344.1136,133.2883 1165.1336,199.8583" fill="none" id="WgSelect-to-Menu" style="stroke:#1F2937;stroke-width:1;"/><polygon fill="#1F2937" points="1159.51,201.95,1169.3398,202.5616,1164.1963,200.207,1166.551,195.0634,1159.51,201.95" style="stroke:#1F2937;stroke-width:1;"/><text fill="#000000" font-family="Helvetica" font-size="13" lengthAdjust="spacing" textLength="54.0884" x="1719.26" y="90.9369">b (Back)</text></g><!--link FeatureMenu to CLI--><g class="link" data-entity-1="ent0011" data-entity-2="ent0003" data-link-type="dependency" data-source-line="73" id="lnk50"><path d="M223.89,658.42 C257.34,580.92 321.58,454.28 411.74,374.87 C471.73,322.03 552.202,290.0161 612.332,271.2661" fill="none" id="FeatureMenu-to-CLI" style="stroke:#1F2937;stroke-width:1;"/><polygon fill="#1F2937" points="618.06,269.48,608.2773,268.3405,613.2867,270.9684,610.6588,275.9778,618.06,269.48" style="stroke:#1F2937;stroke-width:1;"/><text fill="#000000" font-family="Helvetica" font-size="13" lengthAdjust="spacing" textLength="49.7085" x="416.24" y="332.9369">q (Quit)</text></g><?plantuml-src VLRRRjiu47tdLyncNooaiYCdQIxOT64xTXgW2TfSwXS30YtHihOIgP9KN6En_xv3Kf9bEsw061HvU6OuSsR8F_IIvGoAZAQSg1yfBwYaESnfz2EHekJnI6H2mfyJ-zT2n6n1oqnF1DUF51a-i-oDwJIYBSn0Ih6g2899_-hqehKeMQGfJp86_nA0eP0nazjO0CDUpmN1PT_C3VTSkveC9aFoNukR2rtHldEEY_7jhi7nuFpoPBHjy6BKlmtwI4iojj2W1SWqMMg8K-DvAZWXDDA8V5LCairfZaPVxg6JChtmLubF4yQrTmHK0SwtOMORlAmB1W-CbpCUUF38Li1uadB6v8ptFHZ_AfXC6OzOt2nOBhEbJMPv1d3FYrBF-DFucpyP3rxyavDWngTBYkwpQCdnOCaQg6JK_C1Qb91opIHJ6Wsa_6_B_O9GIzGseCeaGLYuIbGuNuSRkawts_LclFF6R31kXt0C4KQH_TAGKnqjlORqmNo-u_LNeRJ_p38NrXd_Aj4hu6pbOpPHKcb1yJjB-OyPNsfTgEjURxLQTKsCkq8clPoXydZIszcYUiuqMXcWF8izqyDt0jQl0ZOL4kMKm1sgf_XTkAR9Nh0G8R0QC5WXnzgeGwIMGkhUeimoZ54LK3omyYgU9xUjpJIzWrPWt122RlUnsk9cTdPC6DMbREdgkSnpAjSW5Z2ziy8Q8ECRWrZIXLOpVkh1hHcYk5LKAcMyWav6bOPJo36RIuK7EFFWjOYfPWeMKkHWr_jmFtwPG9K2v3f7TXHzJ8svieX4RiBO1itutBEL-G5-Ul2jJBKzJUNshhHRkJcTyOGP3ORH4jFCP1NPaSYBZ679LzDWrETgpaqSu3jh-AYDH-ZYOLW_eDxoLDy49yYVnbZ4wI9bigTJdR6UqkYgiXPitDG10-UDWKrWG-MouQoiKXwBLHZJjRgvChQgLLI8NcAXnfMLJLuEcFhOc39f2VLAX5Mumz8bhGgMpSHVlCpdJ7u2wb9r39Yb4a5LTt79F63gqfcgSnkQEWmTKNCu4xMyGBrZ7VfECyUrCLF9A9JxUXtl4atJ31LdVGlwvxsW_n7_Brnbl5Q6skxOsY_Ms6fGw5Zps4oHCkYVAD1fpaIfqTxhqnTV5Ip2r4N0y3AIxdmZt4JGAJgd2hc-rwrhniraRwElq7MrC9vt_r62sytVRuSaoaGPmz4jehL48QFaZk41pq1bj4GXMU2pA6N4526sq_l-9ti3cDl1ZAtCYVcrdqtJXMie3LwR1dK3mGPIDPeTG9-GpTwQoNNQPcJdZT_RCqtxg0TkVzqkqP0jSsjeG3Rp1jKkLb9xvaZhDjQCVcEiHRDbRaX8Uya6hwhjQn25QOSOcbs8gyKDeh-FQFMt1dQw1wiBO8CvsyFKgjnWpWcfdRGE6vLLBcs-MmuqausvPgOXRsRCZ_rgPDMsjHr7S_zYEMzPFuJOyUS0RCl30vWjdmzWTeFOYE4Qvj0nTuAtBP2Ae5dSKmMMqpNyX8wvHZn2xCjlBhH69U7zqvPf-rNKxMB7n9fjTpN8X2WWLP1YLAcv3xgkT2FAcnC0jNUn0imtFfr1MLVnEJ2z8zX3pBlPTWJxNcI-MyR5dgbPtsYxIx09sXSg-Hy0?></g></svg>