<?plantuml 1.2026.1?><svg xmlns="http://www.w3.org/2000/svg" xmlns:xlink="http://www.w3.org/1999/xlink" contentStyleType="text/css" data-diagram-type="ACTIVITY" height="511px" preserveAspectRatio="none" style="width:681px;height:511px;background:#FFFFFF;" version="1.1" viewBox="0 0 681 511" width="681px" zoomAndPan="magnify"><title>REQ-FEAT-003 - Summary of WG (Complete Charter)</title><defs/><g><g class="title" data-source-line="10"><text fill="#000000" font-family="Helvetica" font-size="22" font-weight="bold" lengthAdjust="spacing" textLength="648.1621" x="15" y="35.4209">REQ-FEAT-003 - Summary of WG (Complete Charter)</text></g><ellipse cx="340.5811" cy="61.6094" fill="#FFFFFF" rx="10" ry="10" style="stroke:#000000;stroke-width:1;"/><rect fill="#F9FAFB" height="33.9688" rx="12.5" ry="12.5" style="stroke:#1F2937;stroke-width:1;" width="145.2148" x="267.9736" y="91.6094"/><text fill="#111827" font-family="Helvetica" font-size="12" lengthAdjust="spacing" textLength="125.2148" x="277.9736" y="112.748">WG already resolved</text><rect fill="#F9FAFB" height="33.9688" rx="12.5" ry="12.5" style="stroke:#1F2937;stroke-width:1;" width="146.2813" x="267.4404" y="145.5781"/><text fill="#111827" font-family="Helvetica" font-size="12" lengthAdjust="spacing" textLength="126.2813" x="277.4404" y="166.7168">User selects option 1</text><rect fill="#F9FAFB" height="33.9688" rx="12.5" ry="12.5" style="stroke:#1F2937;stroke-width:1;" width="182.6094" x="249.2764" y="199.5469"/><text fill="#111827" font-family="Helvetica" font-size="12" lengthAdjust="spacing" textLength="162.6094" x="259.2764" y="220.6855">Call get_wg_charter(wg_id)</text><rect fill="#F9FAFB" height="33.9688" rx="12.5" ry="12.5" style="stroke:#1F2937;stroke-width:1;" width="322.8418" x="179.1602" y="253.5156"/><text fill="#111827" font-family="Helvetica" font-size="12" lengthAdjust="spacing" textLength="302.8418" x="189.1602" y="274.6543">Fetch https://datatracker.ietf.org/wg/&lt;wg&gt;/about/</text><rect fill="#F9FAFB" height="33.9688" rx="12.5" ry="12.5" style="stroke:#1F2937;stroke-width:1;" width="325.0859" x="178.0381" y="307.4844"/><text fill="#111827" font-family="Helvetica" font-size="12" lengthAdjust="spacing" textLength="305.0859" x="188.0381" y="328.623">Extract complete "Charter for Working Group" text</text><rect fill="#F9FAFB" height="47.9375" rx="12.5" ry="12.5" style="stroke:#1F2937;stroke-width:1;" width="195.4707" x="242.8457" y="361.4531"/><text fill="#111827" font-family="Helvetica" font-size="12" lengthAdjust="spacing" textLength="175.4707" x="252.8457" y="382.5918">Return complete charter text</text><text fill="#111827" font-family="Helvetica" font-size="12" lengthAdjust="spacing" textLength="94.752" x="252.8457" y="396.5605">(non-truncated)</text><rect fill="#F9FAFB" height="33.9688" rx="12.5" ry="12.5" style="stroke:#1F2937;stroke-width:1;" width="236.3516" x="222.4053" y="429.3906"/><text fill="#111827" font-family="Helvetica" font-size="12" lengthAdjust="spacing" textLength="216.3516" x="232.4053" y="450.5293">Render charter in CLI/MCP response</text><ellipse cx="340.5811" cy="494.3594" fill="none" rx="11" ry="11" style="stroke:#000000;stroke-width:1;"/><ellipse cx="340.5811" cy="494.3594" fill="#FFFFFF" rx="6" ry="6" style="stroke:#000000;stroke-width:1;"/><line style="stroke:#1F2937;stroke-width:1;" x1="340.5811" x2="340.5811" y1="71.6094" y2="91.6094"/><polygon fill="#1F2937" points="336.5811,81.6094,340.5811,91.6094,344.5811,81.6094,340.5811,85.6094" style="stroke:#1F2937;stroke-width:1;"/><line style="stroke:#1F2937;stroke-width:1;" x1="340.5811" x2="340.5811" y1="125.5781" y2="145.5781"/><polygon fill="#1F2937" points="336.5811,135.5781,340.5811,145.5781,344.5811,135.5781,340.5811,139.5781" style="stroke:#1F2937;stroke-width:1;"/><line style="stroke:#1F2937;stroke-width:1;" x1="340.5811" x2="340.5811" y1="179.5469" y2="199.5469"/><polygon fill="#1F2937" points="336.5811,189.5469,340.5811,199.5469,344.5811,189.5469,340.5811,193.5469" style="stroke:#1F2937;stroke-width:1;"/><line style="stroke:#1F2937;stroke-width:1;" x1="340.5811" x2="340.5811" y1="233.5156" y2="253.5156"/><polygon fill="#1F2937" points="336.5811,243.5156,340.5811,253.5156,344.5811,243.5156,340.5811,247.5156" style="stroke:#1F2937;stroke-width:1;"/><line style="stroke:#1F2937;stroke-width:1;" x1="340.5811" x2="340.5811" y1="287.4844" y2="307.4844"/><polygon fill="#1F2937" points="336.5811,297.4844,340.5811,307.4844,344.5811,297.4844,340.5811,301.4844" style="stroke:#1F2937;stroke-width:1;"/><line style="stroke:#1F2937;stroke-width:1;" x1="340.5811" x2="340.5811" y1="341.4531" y2="361.4531"/><polygon fill="#1F2937" points="336.5811,351.4531,340.5811,361.4531,344.5811,351.4531,340.5811,355.4531" style="stroke:#1F2937;stroke-width:1;"/><line style="stroke:#1F2937;stroke-width:1;" x1="340.5811" x2="340.5811" y1="409.3906" y2="429.3906"/><polygon fill="#1F2937" points="336.5811,419.3906,340.5811,429.3906,344.5811,419.3906,340.5811,423.3906" style="stroke:#1F2937;stroke-width:1;"/><line style="stroke:#1F2937;stroke-width:1;" x1="340.5811" x2="340.5811" y1="463.3594" y2="483.3594"/><polygon fill="#1F2937" points="336.5811,473.3594,340.5811,483.3594,344.5811,473.3594,340.5811,477.3594" style="stroke:#1F2937;stroke-width:1;"/><?plantuml-src PL1TJy9G37tVhwZwWWyuq0SLZGai34tKA6fyCJ5rA-E6kzkbwqHY_EyMHCNOfwRd8-TqIwTK4bGUNOZgcGiL2fRmWjci46v2dh1dWPrqDHkCd2ROU4qvw3MQmpdvLrANuGQdByBpjK4ttJy-EDm0CLFtwdG1xn70qkQRsEqUxH_QRS2Ia_oLs_LVikEqdmwYZqYTUeBnyBQT3lltxKxd0DfmrvGboW9u0eyZQ2LSLfwK89cYACbkLAijKSz0z4AOBq2ePkkIdqIzXve4QlAKQGrSgUC0NRidw3qKfC_puZdxSchPwl9T0rFIR0fJrQhknN6EYYeMccJFaKxsM8fuNiIdy-8inXTkD3RDy6t9KSY-yssl0yB4EZwosDiA65dlQXkKtjGqOz96mgza7MG5FuLMuD1MQKA6IgjSOmhspn-Q2v1SNiHNoSsoSSMXfXFx1bUV?></g></svg>